<?xml version="1.0" encoding="utf-8"?>
<svg xmlns="http://www.w3.org/2000/svg">
  <text style="fill: rgb(51, 51, 51); font-family: 'Viner Hand ITC'; font-size: 20.1px; white-space: pre;" x="-18.625" y="300.86"> </text>
  <g transform="matrix(8.058739, 0, 0, 8.058739, 426.217743, 233.524353)"/>
  <path d="M 636.327 50.501 L 664.533 50.501 C 673.864 50.501 681.549 57.551 682.554 66.614 L 696.768 66.619 C 706.781 66.619 714.9 74.737 714.9 84.751 L 714.9 144.876 C 714.768 138.9 710.816 133.438 704.776 131.662 C 697.303 129.464 689.465 133.74 687.267 141.212 L 683.134 155.265 L 677.278 155.265 C 676.491 153.603 675.364 152.068 673.902 150.769 C 668.081 145.594 659.166 146.118 653.992 151.94 L 637.874 170.072 C 633.125 175.415 633.125 183.467 637.874 188.811 L 653.992 206.943 C 656.756 210.052 660.587 211.65 664.444 211.676 L 604.092 211.676 C 594.078 211.676 585.96 203.558 585.96 193.544 L 585.96 84.751 C 585.96 74.737 594.078 66.619 604.092 66.619 L 618.306 66.614 C 619.31 57.551 626.995 50.501 636.327 50.501 Z M 664.533 62.59 L 636.327 62.59 C 632.989 62.59 630.283 65.296 630.283 68.634 C 630.283 71.972 632.989 74.678 636.327 74.678 L 664.533 74.678 C 667.871 74.678 670.577 71.972 670.577 68.634 C 670.577 65.296 667.871 62.59 664.533 62.59 Z M 643.897 183.457 L 660.015 201.589 C 661.209 202.932 662.867 203.617 664.533 203.617 C 665.961 203.618 667.396 203.115 668.548 202.091 C 671.043 199.873 671.267 196.053 669.05 193.558 L 656.502 179.441 L 669.05 165.325 C 671.267 162.83 671.043 159.009 668.548 156.792 C 666.116 154.63 662.424 154.789 660.186 157.11 C 660.147 157.15 660.108 157.191 660.07 157.233 C 660.052 157.253 660.033 157.273 660.015 157.293 L 643.897 175.426 C 643.897 175.426 643.897 175.426 643.897 175.426 C 641.863 177.716 641.863 181.167 643.897 183.457 Z M 694.998 143.486 C 695.94 140.283 699.3 138.451 702.502 139.393 C 702.841 139.492 703.164 139.619 703.471 139.77 C 704.356 140.205 705.099 140.841 705.66 141.603 C 706.416 142.629 706.843 143.885 706.843 145.192 C 706.842 145.756 706.762 146.329 706.595 146.897 L 686.448 215.396 C 685.506 218.599 682.147 220.431 678.944 219.489 C 675.741 218.547 673.91 215.187 674.851 211.985 L 694.998 143.486 Z M 712.899 202.09 C 710.404 199.873 710.18 196.053 712.397 193.558 L 724.945 179.441 L 712.397 165.325 C 710.18 162.83 710.404 159.009 712.899 156.791 C 715.394 154.574 719.214 154.798 721.432 157.293 L 737.55 175.426 C 739.584 177.716 739.584 181.167 737.55 183.457 L 721.432 201.589 C 719.214 204.084 715.394 204.308 712.899 202.09 Z" style="fill: rgba(179, 164, 233, 0.945);"/>
</svg>