<?xml version="1.0" encoding="utf-8"?>
<svg viewBox="61.895 206.681 195.568 194.864" xmlns="http://www.w3.org/2000/svg" xmlns:xlink="http://www.w3.org/1999/xlink" xmlns:bx="https://boxy-svg.com">
  <defs>
    <linearGradient id="gradient-1" bx:pinned="true">
      <stop offset="0.97" style="stop-color: rgb(18, 67, 56);"/>
    </linearGradient>
    <linearGradient id="gradient-2" bx:pinned="true">
      <stop offset="0.97" style="stop-color: rgb(18, 67, 56);"/>
    </linearGradient>
    <linearGradient id="gradient-3" bx:pinned="true">
      <stop offset="0" style="stop-color: rgb(38, 77, 228);"/>
      <stop offset="0.84" style="stop-color: rgb(0, 150, 219);"/>
    </linearGradient>
    <linearGradient id="color-0" bx:pinned="true">
      <stop style="stop-color: rgb(237, 77, 0);" offset="0.29"/>
      <stop style="stop-color: rgb(255, 172, 62);" offset="1"/>
    </linearGradient>
    <linearGradient id="gradient-3-0" gradientUnits="userSpaceOnUse" x1="156.876" y1="214.183" x2="156.876" y2="386.103" xlink:href="#gradient-3"/>
  </defs>
  <g style="transform-origin: 156.876px 300.143px;" transform="matrix(0.836392, -0.592514, 0.592514, 0.836392, 2.149124, 2.149022)">
    <ellipse style="paint-order: stroke; fill-rule: nonzero; stroke: rgb(0, 0, 0); stroke-miterlimit: 3.42; stroke-width: 0px; transform-box: fill-box; transform-origin: 50% 50%; fill: url('#gradient-3-0');" cx="156.876" cy="300.143" rx="85.96" ry="85.96" transform="matrix(0, -1, 1, 0, 0.000008, 0)"/>
  </g>
  <g transform="matrix(3.95938, 0, 0, 3.95938, 329.366333, 284.342804)">
    <title>CSS3</title>
  </g>
  <g id="layer1" transform="matrix(0.274236, -0.099616, 0.099616, 0.274236, 3.853468, 200.261353)">
    <polygon id="polygon2989" points="556.367 376.982 523.321 747.181 374.778 788.362 226.644 747.239 193.633 376.982" style="transform-box: fill-box; transform-origin: 50% 50%; fill: rgb(38, 77, 228);"/>
    <polygon id="polygon2991" points="495.03 723.608 523.27 407.256 375 407.256 375 756.885" style="fill: rgb(41, 101, 241); transform-box: fill-box; transform-origin: 50% 50%;"/>
    <polygon id="polygon2993" points="269.31 544.579 273.38 589.989 375 589.989 375 544.579" style="fill: rgb(235, 235, 235); transform-box: fill-box; transform-origin: 50% 50%;"/>
    <polygon id="polygon2995" points="375 452.667 374.843 452.667 261.132 452.667 265.26 498.078 375 498.078" style="fill: rgb(235, 235, 235); transform-box: fill-box; transform-origin: 50% 50%;"/>
    <polygon id="polygon2997" points="375 709.761 375 662.515 374.801 662.568 324.227 648.912 320.994 612.695 296.419 612.695 275.409 612.695 281.771 683.996 374.791 709.819" style="fill: rgb(235, 235, 235); transform-box: fill-box; transform-origin: 50% 50%;"/>
    <polygon id="polygon3005" points="430.761 589.989 425.49 648.883 374.843 662.553 374.843 709.797 467.937 683.996 468.62 676.324 479.291 556.773 480.399 544.579 488.597 452.667 374.843 452.667 374.843 498.078 438.831 498.078 434.699 544.579 374.843 544.579 374.843 589.989" style="fill: rgb(255, 255, 255); transform-box: fill-box; transform-origin: 50% 50%;"/>
  </g>
</svg>