<?xml version="1.0" encoding="utf-8"?>
<svg viewBox="61.895 206.681 195.568 194.864" xmlns="http://www.w3.org/2000/svg" xmlns:xlink="http://www.w3.org/1999/xlink" xmlns:bx="https://boxy-svg.com">
  <defs>
    <linearGradient id="gradient-1" bx:pinned="true">
      <stop offset="0.97" style="stop-color: rgb(18, 67, 56);"/>
    </linearGradient>
    <linearGradient id="gradient-2" bx:pinned="true">
      <stop offset="0" style="stop-color: rgb(255, 218, 62);"/>
      <stop offset="1" style="stop-color: rgb(54, 48, 21);"/>
    </linearGradient>
    <linearGradient id="gradient-3" bx:pinned="true">
      <stop offset="0" style="stop-color: rgb(38, 77, 228);"/>
      <stop offset="0.84" style="stop-color: rgb(0, 150, 219);"/>
    </linearGradient>
    <linearGradient id="color-0" bx:pinned="true">
      <stop style="stop-color: rgb(237, 77, 0);" offset="0.29"/>
      <stop style="stop-color: rgb(255, 172, 62);" offset="1"/>
    </linearGradient>
    <linearGradient id="gradient-2-0" gradientUnits="userSpaceOnUse" x1="156.876" y1="214.183" x2="156.876" y2="386.103" xlink:href="#gradient-2"/>
  </defs>
  <g style="transform-origin: 156.876px 300.143px;" transform="matrix(0.836392, -0.592514, 0.592514, 0.836392, 2.149124, 2.149022)">
    <ellipse style="paint-order: stroke; fill-rule: nonzero; stroke: rgb(0, 0, 0); stroke-miterlimit: 3.42; stroke-width: 0px; transform-box: fill-box; transform-origin: 50% 50%; fill: url('#gradient-2-0');" cx="156.876" cy="300.143" rx="85.96" ry="85.96" transform="matrix(0, -1, 1, 0, 0.000008, 0)"/>
  </g>
  <g transform="matrix(3.95938, 0, 0, 3.95938, 329.366333, 284.342804)">
    <title>CSS3</title>
  </g>
  <g transform="matrix(0.671209, 0, 0, 0.671209, 323.147736, 271.672791)" style="">
    <g style="transform-origin: 78.7925px 107.005px;" transform="matrix(1.137972, -0.397525, 0.397525, 1.137972, -311.973419, -32.68399)">
      <g>
        <g>
          <g>
            <g>
              <path style="fill: rgb(214, 186, 50); stroke-width: 0px;" d="M 18.507 35.54 C 31.985 34.946 45.49 35.71 58.981 35.47 C 73.865 34.974 88.735 35.385 103.633 35.441 C 115.448 35.47 127.263 35.385 139.078 35.484 C 135.361 78.43 131.616 121.376 128.169 164.35 C 112.339 169.065 96.495 173.71 80.665 178.396 C 78.637 179.274 76.555 178.453 74.609 177.901 C 59.563 173.37 44.516 168.881 29.443 164.52 C 25.523 121.56 21.832 78.557 18.507 35.54 M 79.043 46.741 C 78.488 67.923 78.962 89.106 78.799 110.289 C 78.948 129.659 78.529 149.044 79.016 168.414 C 92.318 165.129 105.444 161.093 118.571 157.115 C 121.869 120.342 125.087 83.57 127.845 46.755 C 111.582 46.585 95.305 46.783 79.043 46.741 M 62.118 129.461 C 54.304 127.224 46.585 124.647 38.663 122.877 C 38.433 127.804 38.514 132.732 39.055 137.631 C 50.654 140.59 62.009 144.484 73.622 147.387 C 73.703 119.337 73.581 91.273 73.676 63.222 C 69.891 63.123 66.105 63.067 62.32 62.982 C 61.888 85.127 62.293 107.301 62.118 129.461 L 62.118 129.461 Z" id="path3770"/>
            </g>
          </g>
        </g>
        <path style="fill: rgb(255, 218, 62); stroke-width: 0px;" d="M 79.043 46.741 C 95.305 46.783 111.582 46.585 127.845 46.755 C 125.087 83.57 121.869 120.342 118.571 157.115 C 105.444 161.093 92.318 165.129 79.016 168.414 C 78.529 149.044 78.948 129.659 78.799 110.289 C 78.962 89.106 78.488 67.923 79.043 46.741 M 83.598 63.208 C 83.652 81.446 83.666 99.697 83.598 117.935 C 91.547 116.59 99.469 115.046 107.391 113.531 C 107.269 117.779 107.107 122.027 106.931 126.275 C 99.212 128.427 91.507 130.65 83.747 132.647 C 83.625 137.546 83.612 142.445 83.652 147.359 C 93.426 145.065 103.052 142.176 112.758 139.613 C 113.975 139.019 116.313 139.089 116.205 137.093 C 117.381 123.981 118.111 110.813 119.247 97.673 C 111.203 98.366 103.241 99.782 95.197 100.363 C 95.13 92.915 95.116 85.467 95.224 78.019 C 103.687 78.019 112.136 78.019 120.599 78.033 C 121.139 73.063 121.612 68.079 121.977 63.095 C 109.189 63.152 96.387 62.968 83.598 63.208 Z" id="path3798"/>
      </g>
      <path id="path3806" d="M 62.118 129.461 C 62.293 107.301 61.888 85.127 62.32 62.982 C 66.106 63.067 69.891 63.123 73.676 63.222 C 73.581 91.273 73.703 119.337 73.622 147.387 C 62.009 144.484 50.654 140.59 39.055 137.631 C 38.514 132.732 38.433 127.804 38.663 122.877 C 46.585 124.647 54.304 127.224 62.118 129.461 L 62.118 129.461 Z" style="fill: rgb(235, 235, 235); stroke-width: 0px;"/>
    </g>
  </g>
</svg>